<svg width="24" height="24" viewBox="0 0 24 24" fill="none" xmlns="http://www.w3.org/2000/svg">
<path d="M12.7274 13.0223L13.2224 12.5274C13.2894 12.4603 13.3229 12.3778 13.3229 12.2799C13.3229 12.1819 13.2894 12.0994 13.2224 12.0324L11.4899 10.3L13.2224 8.56756C13.2894 8.50053 13.3229 8.41803 13.3229 8.32007C13.3229 8.2221 13.2894 8.13961 13.2224 8.07258L12.7274 7.57761C12.6604 7.51058 12.5779 7.47706 12.4799 7.47706C12.3819 7.47706 12.2994 7.51058 12.2324 7.57761L10.5 9.31002L8.76759 7.57761C8.70056 7.51058 8.61806 7.47706 8.5201 7.47706C8.42214 7.47706 8.33964 7.51058 8.27261 7.57761L7.77764 8.07258C7.71061 8.13961 7.6771 8.22211 7.6771 8.32007C7.6771 8.41803 7.71061 8.50053 7.77764 8.56756L9.51005 10.3L7.77764 12.0324C7.71061 12.0994 7.6771 12.1819 7.6771 12.2799C7.6771 12.3778 7.71061 12.4603 7.77764 12.5274L8.27261 13.0223C8.33964 13.0894 8.42214 13.1229 8.5201 13.1229C8.61806 13.1229 8.70056 13.0894 8.76759 13.0223L10.5 11.2899L12.2324 13.0223C12.2994 13.0894 12.3819 13.1229 12.4799 13.1229C12.5779 13.1229 12.6604 13.0894 12.7274 13.0223Z" fill="black"/>
<path fill-rule="evenodd" clip-rule="evenodd" d="M3.21558 10.2491C3.21558 6.2646 6.45558 3.0246 10.4401 3.0246C14.4245 3.0246 17.6645 6.2646 17.6645 10.2491C17.6645 11.8347 17.1514 13.3024 16.2825 14.495C16.3483 14.537 16.4094 14.5856 16.4644 14.6404L20.448 18.6239C20.928 19.1039 20.928 19.8483 20.448 20.3283L20.1358 20.6405C19.9201 20.8805 19.608 21.0005 19.2958 21.0005C18.9836 21.0005 18.6714 20.8561 18.4558 20.6405L14.4722 16.6569C14.3833 16.5771 14.3109 16.484 14.255 16.3825C13.1473 17.0738 11.8396 17.4736 10.4401 17.4736C6.45558 17.4736 3.21558 14.2336 3.21558 10.2491ZM16.4645 10.2491C16.4645 6.93684 13.7756 4.2246 10.4401 4.2246C7.10454 4.2246 4.3923 6.9126 4.3923 10.2481C4.3923 13.5848 7.12782 16.2726 10.4401 16.2726C13.7523 16.2726 16.4645 13.5604 16.4645 10.2491Z" fill="black"/>
</svg>
