<svg width="24" height="24" viewBox="0 0 24 24" fill="none" xmlns="http://www.w3.org/2000/svg">
<path fill-rule="evenodd" clip-rule="evenodd" d="M3.21558 10.2491C3.21558 6.2646 6.45558 3.0246 10.4401 3.0246C14.4245 3.0246 17.6645 6.2646 17.6645 10.2491C17.6645 11.8347 17.1514 13.3024 16.2825 14.495C16.3483 14.537 16.4094 14.5856 16.4644 14.6404L20.448 18.6239C20.928 19.1039 20.928 19.8483 20.448 20.3283L20.1358 20.6405C19.9201 20.8805 19.608 21.0005 19.2958 21.0005C18.9836 21.0005 18.6714 20.8561 18.4558 20.6405L14.4722 16.6569C14.3833 16.5771 14.3109 16.484 14.255 16.3825C13.1473 17.0738 11.8396 17.4736 10.4401 17.4736C6.45558 17.4736 3.21558 14.2336 3.21558 10.2491ZM16.4645 10.2491C16.4645 6.93684 13.7756 4.2246 10.4401 4.2246C7.10454 4.2246 4.3923 6.9126 4.3923 10.2481C4.3923 13.5848 7.12782 16.2726 10.4401 16.2726C13.7523 16.2726 16.4645 13.5604 16.4645 10.2491Z" fill="black"/>
</svg>
