<svg width="24" height="24" viewBox="0 0 24 24" fill="none" xmlns="http://www.w3.org/2000/svg">
    <path fill-rule="evenodd" clip-rule="evenodd" d="M10.4401 3.0246C6.45558 3.0246 3.21558 6.2646 3.21558 10.2491C3.21558 14.2336 6.45558 17.4736 10.4401 17.4736C11.8396 17.4736 13.1473 17.0738 14.255 16.3825C14.3109 16.484 14.3833 16.5771 14.4722 16.6569L18.4558 20.6405C18.6714 20.8561 18.9836 21.0005 19.2958 21.0005C19.608 21.0005 19.9201 20.8805 20.1358 20.6405L20.448 20.3283C20.928 19.8483 20.928 19.1039 20.448 18.6239L16.4644 14.6404C16.4094 14.5856 16.3483 14.537 16.2825 14.495C17.1514 13.3024 17.6645 11.8347 17.6645 10.2491C17.6645 6.2646 14.4245 3.0246 10.4401 3.0246ZM10.4401 4.2246C13.7756 4.2246 16.4645 6.93684 16.4645 10.2491C16.4645 13.5604 13.7523 16.2726 10.4401 16.2726C7.12782 16.2726 4.3923 13.5848 4.3923 10.2481C4.3923 6.9126 7.10454 4.2246 10.4401 4.2246ZM10.7195 6C8.06908 6 5.92001 8.21419 5.92001 10.9458C5.92001 11.2184 6.1351 11.44 6.39968 11.44C6.66516 11.44 6.88025 11.2184 6.88025 10.9458C6.88025 8.76035 8.59916 6.98935 10.7194 6.98935C10.9849 6.98935 11.2 6.76775 11.2 6.49515C11.2 6.22163 10.9849 6 10.7195 6Z" fill="rgba(64, 65, 66, 0.7)"/>
</svg>
